<?xml version="1.0" encoding="utf-8"?>
<!-- Generator: Adobe Illustrator 26.5.0, SVG Export Plug-In . SVG Version: 6.00 Build 0)  -->
<svg version="1.1" xmlns="http://www.w3.org/2000/svg" xmlns:xlink="http://www.w3.org/1999/xlink" x="0px" y="0px"
	 viewBox="0 0 1193 1218" style="enable-background:new 0 0 1193 1218;" xml:space="preserve">
<style type="text/css">
	.st0{fill:#FFFFFF;}
	.st1{fill:#01A654;}
	.st2{fill:#FFFFFF;stroke:#026735;stroke-width:0.1;stroke-miterlimit:10;}
	.st3{opacity:0.5;fill:none;stroke:#1B1110;stroke-width:5.000000e-02;stroke-miterlimit:10;}
	.st4{opacity:0.15;}
	.st5{fill:#010101;}
	.st6{fill:#FFFFFF;stroke:#01A654;stroke-width:0.4;stroke-miterlimit:10;}
	.st7{fill:#ED1C24;stroke:#026735;stroke-width:0.1;stroke-miterlimit:10;}
	.st8{fill:#006838;stroke:#006635;stroke-width:0.1;stroke-miterlimit:10;}
	.st9{fill:#006838;stroke:#026735;stroke-width:0.1;stroke-miterlimit:10;}
</style>
<g id="Layer_2">
	
		<image style="overflow:visible;" width="1193" height="1218" xlink:href="roselawnmap.png"  transform="matrix(1 0 0 1 107.4118 -42.8529)">
	</image>
</g>
<g id="Layer_1">
	<g>
		<polygon class="st0" points="398.3,416.7 473.7,159.6 536.1,122 649.9,355.5 492,444.2 		"/>
		<path class="st1" d="M536,122.3l113.6,233.1L492,444l-93.4-27.5l75.3-256.8L536,122.3 M536.2,121.7l-62.7,37.7l-75.4,257.3
			l93.9,27.6l158.1-88.8L536.2,121.7L536.2,121.7z"/>
	</g>
	    
		<rect x="403.4" y="401" fill="cyan" transform="matrix(0.2814 -0.9596 0.9596 0.2814 -96.1892 678.1523)" width="2.6" height="4.6"/>
	
		<rect x="404.1" y="398.5" fill="cyan" transform="matrix(0.2814 -0.9596 0.9596 0.2814 -93.2273 677.0459)" width="2.6" height="4.6"/>
	
		<rect x="404.9" y="396" transform="matrix(0.2814 -0.9596 0.9596 0.2814 -90.2654 675.9395)" class="st2" width="2.6" height="4.6"/>
	
		<rect x="405.6" y="393.4" transform="matrix(0.2814 -0.9596 0.9596 0.2814 -87.3035 674.833)" class="st2" width="2.6" height="4.6"/>
	
		<rect x="406.3" y="390.9" transform="matrix(0.2814 -0.9596 0.9596 0.2814 -84.3415 673.7266)" class="st2" width="2.6" height="4.6"/>
	
		<rect x="407.8" y="402.3" transform="matrix(0.2814 -0.9596 0.9596 0.2814 -94.2772 683.2707)" class="st2" width="2.6" height="4.6"/>
	
		<rect x="408.5" y="399.8" transform="matrix(0.2814 -0.9596 0.9596 0.2814 -91.3153 682.1642)" class="st2" width="2.6" height="4.6"/>
	
		<rect x="409.2" y="397.2" transform="matrix(0.2814 -0.9596 0.9596 0.2814 -88.3534 681.0578)" class="st2" width="2.6" height="4.6"/>
	
		<rect x="410" y="394.7" transform="matrix(0.2814 -0.9596 0.9596 0.2814 -85.3915 679.9514)" class="st2" width="2.6" height="4.6"/>
	
		<rect x="410.7" y="392.2" transform="matrix(0.2814 -0.9596 0.9596 0.2814 -82.4295 678.8449)" class="st2" width="2.6" height="4.6"/>

		<!-- <rect x="403.4" y="401" fill="cyan" transform="matrix(0.2814 -0.9596 0.9596 0.2814 -96.1892 678.1523)" width="2.6" height="4.6"/> -->
	<circle class="st3" cx="408.3" cy="398.9" r="3.9"/>
	<g class="st4">
		<path class="st5" d="M410.2,400.6l-0.5-0.1l-1.5-2c-0.1-0.1-0.2-0.2-0.3-0.3c-0.1-0.1-0.2-0.1-0.3-0.2l0,0c-0.2,0-0.3,0-0.4,0
			c-0.1,0.1-0.2,0.2-0.3,0.4c0,0.2,0,0.3,0,0.4c0.1,0.1,0.2,0.2,0.4,0.3l0,0l-0.2,0.6l0,0c-0.3-0.2-0.6-0.4-0.7-0.6
			c-0.1-0.3-0.2-0.6-0.1-0.9c0.1-0.4,0.3-0.6,0.5-0.8c0.2-0.1,0.5-0.2,0.9-0.1l0,0c0.1,0,0.3,0.1,0.4,0.2c0.1,0.1,0.3,0.2,0.4,0.4
			l1.3,1.7l0.5-1.6l0.5,0.2L410.2,400.6z"/>
	</g>
	<path class="st6" d="M414.8,402.2"/>
	
		<rect x="407.1" y="388.3" transform="matrix(0.2814 -0.9596 0.9596 0.2814 -81.2848 672.5849)" class="st2" width="2.6" height="4.6"/>
	
		<rect x="407.9" y="385.8" transform="matrix(0.2814 -0.9596 0.9596 0.2814 -78.3229 671.4785)" class="st2" width="2.6" height="4.6"/>
	
		<rect x="408.6" y="383.2" transform="matrix(0.2814 -0.9596 0.9596 0.2814 -75.3609 670.372)" class="st2" width="2.6" height="4.6"/>
	
		<rect x="409.3" y="380.7" transform="matrix(0.2814 -0.9596 0.9596 0.2814 -72.399 669.2656)" class="st2" width="2.6" height="4.6"/>
	
		<rect x="410.1" y="378.2" transform="matrix(0.2814 -0.9596 0.9596 0.2814 -69.4371 668.1591)" class="st7" width="2.6" height="4.6"/>
	
		<rect x="411.5" y="389.6" transform="matrix(0.2814 -0.9596 0.9596 0.2814 -79.3728 677.7032)" class="st8" width="2.6" height="4.6"/>
	
		<rect x="412.2" y="387" transform="matrix(0.2814 -0.9596 0.9596 0.2814 -76.4109 676.5968)" class="st2" width="2.6" height="4.6"/>
	
		<rect x="413" y="384.5" transform="matrix(0.2814 -0.9596 0.9596 0.2814 -73.449 675.4903)" class="st2" width="2.6" height="4.6"/>
	
		<rect x="413.7" y="382" transform="matrix(0.2814 -0.9596 0.9596 0.2814 -70.487 674.3839)" class="st2" width="2.6" height="4.6"/>
	
		<rect x="414.5" y="379.4" transform="matrix(0.2814 -0.9596 0.9596 0.2814 -67.5251 673.2774)" class="st2" width="2.6" height="4.6"/>
	<circle class="st3" cx="412.1" cy="386.1" r="3.9"/>
	<g class="st4">
		<path class="st5" d="M414.3,386.7c-0.1,0.2-0.2,0.4-0.3,0.6c-0.1,0.2-0.3,0.3-0.5,0.3c-0.2,0.1-0.4,0.1-0.6,0l0.2-0.6
			c0.2,0,0.3,0,0.5-0.1c0.1-0.1,0.2-0.2,0.2-0.4c0.1-0.2,0-0.4,0-0.5c-0.1-0.1-0.2-0.2-0.4-0.3l-0.1,0c-0.2-0.1-0.4-0.1-0.5,0
			c-0.1,0.1-0.2,0.2-0.3,0.4l-0.1,0.3l-0.5-0.2l0.1-0.3c0-0.2,0-0.3,0-0.4c-0.1-0.1-0.2-0.2-0.4-0.2l-0.1,0c-0.2,0-0.3,0-0.4,0
			c-0.1,0.1-0.2,0.2-0.2,0.4c0,0.1,0,0.3,0,0.4c0.1,0.1,0.2,0.2,0.3,0.3l-0.2,0.6c-0.3-0.2-0.5-0.4-0.7-0.6
			c-0.1-0.3-0.1-0.5-0.1-0.9c0.1-0.4,0.3-0.6,0.5-0.7c0.2-0.1,0.5-0.2,0.9-0.1l0.1,0c0.2,0.1,0.4,0.2,0.5,0.3
			c0.1,0.2,0.2,0.3,0.2,0.6c0.1-0.2,0.3-0.4,0.5-0.4c0.2-0.1,0.4-0.1,0.7,0l0.1,0c0.4,0.1,0.6,0.3,0.8,0.6
			C414.4,386,414.4,386.4,414.3,386.7z"/>
	</g>
	
		<rect x="410.8" y="375.6" transform="matrix(0.2814 -0.9596 0.9596 0.2814 -66.4436 667.0444)" class="st7" width="2.6" height="4.6"/>
	
		<rect x="411.6" y="373.1" transform="matrix(0.2814 -0.9596 0.9596 0.2814 -63.4816 665.9379)" class="st2" width="2.6" height="4.6"/>
	
		<rect x="412.3" y="370.5" transform="matrix(0.2814 -0.9596 0.9596 0.2814 -60.5197 664.8314)" class="st2" width="2.6" height="4.6"/>
	
		<rect x="413.1" y="368" transform="matrix(0.2814 -0.9596 0.9596 0.2814 -57.5578 663.725)" class="st2" width="2.6" height="4.6"/>
	
		<rect x="413.8" y="365.5" transform="matrix(0.2814 -0.9596 0.9596 0.2814 -54.5959 662.6185)" class="st2" width="2.6" height="4.6"/>
	
		<rect x="415.2" y="376.9" transform="matrix(0.2814 -0.9596 0.9596 0.2814 -64.5316 672.1627)" class="st2" width="2.6" height="4.6"/>
	
		<rect x="416" y="374.4" transform="matrix(0.2814 -0.9596 0.9596 0.2814 -61.5696 671.0562)" class="st2" width="2.6" height="4.6"/>
	
		<rect x="416.7" y="371.8" transform="matrix(0.2814 -0.9596 0.9596 0.2814 -58.6077 669.9498)" class="st2" width="2.6" height="4.6"/>
	
		<rect x="417.4" y="369.3" transform="matrix(0.2814 -0.9596 0.9596 0.2814 -55.6458 668.8433)" class="st2" width="2.6" height="4.6"/>
	
		<rect x="418.2" y="366.8" transform="matrix(0.2814 -0.9596 0.9596 0.2814 -52.6839 667.7369)" class="st2" width="2.6" height="4.6"/>
	<circle class="st3" cx="415.8" cy="373.5" r="3.9"/>
	<g class="st4">
		<path class="st5" d="M417,375l-0.5-0.1l-2.6-2.2l0.2-0.6l2.6,2.2l0.6-2l0.5,0.2L417,375z M418.1,373.4l-2.4-0.7l0.2-0.6l2.4,0.7
			L418.1,373.4z"/>
	</g>
	<path class="st6" d="M422.3,376.8"/>
	
		<rect x="408.5" y="416.3" transform="matrix(0.2814 -0.9596 0.9596 0.2814 -107.1481 694.02)" class="st2" width="2.6" height="4.6"/>
	
		<rect x="409.2" y="413.7" transform="matrix(0.2814 -0.9596 0.9596 0.2814 -104.1861 692.9136)" class="st2" width="2.6" height="4.6"/>
	
		<rect x="410" y="411.2" transform="matrix(0.2814 -0.9596 0.9596 0.2814 -101.2242 691.8071)" class="st2" width="2.6" height="4.6"/>
	
		<rect x="410.7" y="408.7" transform="matrix(0.2814 -0.9596 0.9596 0.2814 -98.2623 690.7007)" class="st2" width="2.6" height="4.6"/>
	
		<rect x="411.5" y="406.1" transform="matrix(0.2814 -0.9596 0.9596 0.2814 -95.3004 689.5942)" class="st2" width="2.6" height="4.6"/>
	
		<rect x="412.9" y="417.6" transform="matrix(0.2814 -0.9596 0.9596 0.2814 -105.2361 699.1384)" class="st2" width="2.6" height="4.6"/>
	
		<rect x="413.6" y="415" transform="matrix(0.2814 -0.9596 0.9596 0.2814 -102.2741 698.0319)" class="st2" width="2.6" height="4.6"/>
	
		<rect x="414.4" y="412.5" transform="matrix(0.2814 -0.9596 0.9596 0.2814 -99.3122 696.9255)" class="st2" width="2.6" height="4.6"/>
	
		<rect x="415.1" y="410" transform="matrix(0.2814 -0.9596 0.9596 0.2814 -96.3503 695.819)" class="st2" width="2.6" height="4.6"/>
	
		<rect x="415.8" y="407.4" transform="matrix(0.2814 -0.9596 0.9596 0.2814 -93.3884 694.7126)" class="st9" width="2.6" height="4.6"/>
	<circle class="st3" cx="413.5" cy="414.1" r="3.9"/>
	<g class="st4">
		<path class="st5" d="M414.6,417.3l-0.5-0.1l-1.5-2c-0.1-0.1-0.2-0.2-0.3-0.3c-0.1-0.1-0.2-0.1-0.3-0.2l0,0c-0.2,0-0.3,0-0.4,0
			c-0.1,0.1-0.2,0.2-0.3,0.4c0,0.2,0,0.3,0,0.4c0.1,0.1,0.2,0.2,0.4,0.3l0,0l-0.2,0.6l0,0c-0.3-0.2-0.6-0.4-0.7-0.6
			c-0.1-0.3-0.2-0.6-0.1-0.9c0.1-0.4,0.3-0.6,0.5-0.8c0.2-0.1,0.5-0.2,0.9-0.1l0,0c0.1,0,0.3,0.1,0.4,0.2c0.1,0.1,0.3,0.2,0.4,0.4
			l1.3,1.7l0.5-1.6l0.5,0.2L414.6,417.3z"/>
		<path class="st5" d="M412,410.9l0.5,0.1l3.3,2.1l-0.2,0.6l-3.3-2.1l-0.3,1l0.6,0.2l-0.2,0.6l-1.1-0.3L412,410.9z"/>
	</g>
	
		<rect x="412.2" y="403.6" transform="matrix(0.2814 -0.9596 0.9596 0.2814 -92.3068 688.4795)" class="st2" width="2.6" height="4.6"/>
	
		<rect x="413" y="401.1" transform="matrix(0.2814 -0.9596 0.9596 0.2814 -89.3449 687.373)" class="st2" width="2.6" height="4.6"/>
	
		<rect x="413.7" y="398.5" transform="matrix(0.2814 -0.9596 0.9596 0.2814 -86.383 686.2666)" class="st2" width="2.6" height="4.6"/>
	
		<rect x="414.4" y="396" transform="matrix(0.2814 -0.9596 0.9596 0.2814 -83.421 685.1602)" class="st2" width="2.6" height="4.6"/>
	
		<rect x="415.2" y="393.5" transform="matrix(0.2814 -0.9596 0.9596 0.2814 -80.4591 684.0537)" class="st2" width="2.6" height="4.6"/>
	
		<rect x="416.6" y="404.9" transform="matrix(0.2814 -0.9596 0.9596 0.2814 -90.3948 693.5978)" class="st9" width="2.6" height="4.6"/>
	
		<rect x="417.3" y="402.3" transform="matrix(0.2814 -0.9596 0.9596 0.2814 -87.4329 692.4914)" class="st2" width="2.6" height="4.6"/>
	
		<rect x="418.1" y="399.8" transform="matrix(0.2814 -0.9596 0.9596 0.2814 -84.471 691.3849)" class="st2" width="2.6" height="4.6"/>
	
		<rect x="418.8" y="397.3" transform="matrix(0.2814 -0.9596 0.9596 0.2814 -81.509 690.2785)" class="st2" width="2.6" height="4.6"/>
	
		<rect x="419.6" y="394.8" transform="matrix(0.2814 -0.9596 0.9596 0.2814 -78.5471 689.1721)" class="st2" width="2.6" height="4.6"/>
	<circle class="st3" cx="417.2" cy="401.4" r="3.9"/>
	<g class="st4">
		<path class="st5" d="M418.3,404.7l-0.5-0.1l-1.5-2c-0.1-0.1-0.2-0.2-0.3-0.3c-0.1-0.1-0.2-0.1-0.3-0.2l0,0c-0.2,0-0.3,0-0.4,0
			c-0.1,0.1-0.2,0.2-0.3,0.4c0,0.2,0,0.3,0,0.4c0.1,0.1,0.2,0.2,0.4,0.3l0,0l-0.2,0.6l0,0c-0.3-0.2-0.6-0.4-0.7-0.6
			c-0.1-0.3-0.2-0.6-0.1-0.9c0.1-0.4,0.3-0.6,0.5-0.8c0.2-0.1,0.5-0.2,0.9-0.1l0,0c0.1,0,0.3,0.1,0.4,0.2c0.1,0.1,0.3,0.2,0.4,0.4
			l1.3,1.7l0.5-1.6l0.5,0.2L418.3,404.7z"/>
		<path class="st5" d="M419.6,400.4c-0.1,0.3-0.2,0.5-0.3,0.6c-0.1,0.2-0.3,0.3-0.5,0.3c-0.2,0.1-0.4,0-0.6,0l-0.1,0
			c-0.2-0.1-0.4-0.2-0.5-0.3c-0.2-0.2-0.2-0.3-0.3-0.5c-0.1,0.1-0.3,0.2-0.4,0.2c-0.2,0-0.3,0-0.5,0l-0.1,0
			c-0.3-0.1-0.6-0.3-0.7-0.5c-0.1-0.3-0.2-0.6-0.1-0.9c0.1-0.4,0.3-0.6,0.5-0.8s0.6-0.2,0.9-0.1l0.1,0c0.2,0,0.3,0.1,0.4,0.3
			c0.1,0.1,0.2,0.3,0.2,0.5c0.1-0.1,0.3-0.2,0.5-0.3c0.2-0.1,0.4,0,0.6,0l0.1,0c0.2,0.1,0.4,0.2,0.6,0.3c0.1,0.2,0.2,0.3,0.3,0.6
			S419.7,400.2,419.6,400.4z M417.2,399.7c0.1-0.2,0-0.3,0-0.5c-0.1-0.1-0.2-0.2-0.4-0.3l0,0c-0.2-0.1-0.3,0-0.5,0
			c-0.1,0.1-0.2,0.2-0.3,0.4c-0.1,0.2,0,0.3,0,0.5c0.1,0.1,0.2,0.2,0.4,0.3l0,0c0.2,0.1,0.3,0,0.5,0
			C417,400,417.1,399.9,417.2,399.7z M419.1,400.3c0.1-0.2,0-0.4,0-0.5c-0.1-0.2-0.2-0.3-0.4-0.3l0,0c-0.2-0.1-0.4,0-0.5,0.1
			c-0.2,0.1-0.3,0.2-0.3,0.4s0,0.4,0,0.5c0.1,0.2,0.2,0.3,0.4,0.3l0,0c0.2,0.1,0.4,0,0.5-0.1C418.9,400.6,419,400.5,419.1,400.3z"/>
	</g>
	<path class="st6" d="M423.7,404.8"/>
	
		<rect x="416" y="390.9" transform="matrix(0.2814 -0.9596 0.9596 0.2814 -77.4024 682.912)" class="st2" width="2.6" height="4.6"/>
	
		<rect x="416.7" y="388.3" transform="matrix(0.2814 -0.9596 0.9596 0.2814 -74.4404 681.8056)" class="st2" width="2.6" height="4.6"/>
	
		<rect x="417.4" y="385.8" transform="matrix(0.2814 -0.9596 0.9596 0.2814 -71.4785 680.6991)" class="st2" width="2.6" height="4.6"/>
	
		<rect x="418.2" y="383.3" transform="matrix(0.2814 -0.9596 0.9596 0.2814 -68.5166 679.5927)" class="st2" width="2.6" height="4.6"/>
	
		<rect x="418.9" y="380.7" transform="matrix(0.2814 -0.9596 0.9596 0.2814 -65.5547 678.4862)" class="st2" width="2.6" height="4.6"/>
	
		<rect x="420.3" y="392.1" transform="matrix(0.2814 -0.9596 0.9596 0.2814 -75.4904 688.0303)" class="st2" width="2.6" height="4.6"/>
	
		<rect x="421.1" y="389.6" transform="matrix(0.2814 -0.9596 0.9596 0.2814 -72.5285 686.9239)" class="st2" width="2.6" height="4.6"/>
	
		<rect x="421.8" y="387.1" transform="matrix(0.2814 -0.9596 0.9596 0.2814 -69.5665 685.8174)" class="st2" width="2.6" height="4.6"/>
	
		<rect x="422.6" y="384.5" transform="matrix(0.2814 -0.9596 0.9596 0.2814 -66.6046 684.711)" class="st2" width="2.6" height="4.6"/>
	
		<rect x="423.3" y="382" transform="matrix(0.2814 -0.9596 0.9596 0.2814 -63.6427 683.6046)" class="st2" width="2.6" height="4.6"/>
	<circle class="st3" cx="420.9" cy="388.7" r="3.9"/>
	<g class="st4">
		<path class="st5" d="M422.1,391.8l-0.5-0.1l-1.5-2c-0.1-0.1-0.2-0.2-0.3-0.3c-0.1-0.1-0.2-0.1-0.3-0.2l0,0c-0.2,0-0.3,0-0.4,0
			c-0.1,0.1-0.2,0.2-0.3,0.4c0,0.2,0,0.3,0,0.4c0.1,0.1,0.2,0.2,0.4,0.3l0,0L419,391l0,0c-0.3-0.2-0.6-0.4-0.7-0.6
			c-0.1-0.3-0.2-0.6-0.1-0.9c0.1-0.4,0.3-0.6,0.5-0.8c0.2-0.1,0.5-0.2,0.9-0.1l0,0c0.1,0,0.3,0.1,0.4,0.2c0.1,0.1,0.3,0.2,0.4,0.4
			l1.3,1.7l0.5-1.6l0.5,0.2L422.1,391.8z"/>
		<path class="st5" d="M423.1,388.3l-1.7-1.6l0.1,0c0.1,0.1,0.1,0.2,0.1,0.3c0,0.1,0,0.2,0,0.4c-0.1,0.3-0.3,0.5-0.5,0.6
			c-0.3,0.1-0.6,0.1-1,0l0,0c-0.4-0.1-0.7-0.3-0.8-0.6c-0.2-0.3-0.2-0.6-0.1-0.9c0.1-0.4,0.3-0.6,0.6-0.8c0.3-0.1,0.6-0.1,1,0l0,0
			c0.2,0,0.3,0.1,0.5,0.2s0.4,0.2,0.5,0.4l1.5,1.4L423.1,388.3z M421,387c0.1-0.2,0-0.3-0.1-0.5c-0.1-0.1-0.3-0.2-0.5-0.3l0,0
			c-0.2-0.1-0.4-0.1-0.5,0c-0.1,0.1-0.2,0.2-0.3,0.4c-0.1,0.2,0,0.3,0.1,0.5c0.1,0.1,0.2,0.2,0.5,0.3l0,0c0.2,0.1,0.4,0.1,0.6,0
			C420.9,387.3,421,387.2,421,387z"/>
	</g>
	
		<rect x="419.7" y="378.2" transform="matrix(0.2814 -0.9596 0.9596 0.2814 -62.5611 677.3715)" class="st2" width="2.6" height="4.6"/>
	
		<rect x="420.4" y="375.6" transform="matrix(0.2814 -0.9596 0.9596 0.2814 -59.5992 676.265)" class="st2" width="2.6" height="4.6"/>
	
		<rect x="421.2" y="373.1" transform="matrix(0.2814 -0.9596 0.9596 0.2814 -56.6373 675.1586)" class="st2" width="2.6" height="4.6"/>
	
		<rect x="421.9" y="370.6" transform="matrix(0.2814 -0.9596 0.9596 0.2814 -53.6754 674.0521)" class="st2" width="2.6" height="4.6"/>
	
		<rect x="422.6" y="368.1" transform="matrix(0.2814 -0.9596 0.9596 0.2814 -50.7134 672.9457)" class="st2" width="2.6" height="4.6"/>
	
		<rect x="424" y="379.5" transform="matrix(0.2814 -0.9596 0.9596 0.2814 -60.6491 682.4898)" class="st2" width="2.6" height="4.6"/>
	
		<rect x="424.8" y="376.9" transform="matrix(0.2814 -0.9596 0.9596 0.2814 -57.6872 681.3834)" class="st2" width="2.6" height="4.6"/>
	
		<rect x="425.5" y="374.4" transform="matrix(0.2814 -0.9596 0.9596 0.2814 -54.7253 680.2769)" class="st2" width="2.6" height="4.6"/>
	
		<rect x="426.3" y="371.9" transform="matrix(0.2814 -0.9596 0.9596 0.2814 -51.7634 679.1705)" class="st2" width="2.6" height="4.6"/>
	
		<rect x="427" y="369.3" transform="matrix(0.2814 -0.9596 0.9596 0.2814 -48.8014 678.064)" class="st2" width="2.6" height="4.6"/>
	<circle class="st3" cx="424.6" cy="376" r="3.9"/>
	<g class="st4">
		<path class="st5" d="M426.4,378.1c-0.1,0.2-0.2,0.4-0.3,0.6c-0.1,0.2-0.3,0.3-0.5,0.3c-0.2,0.1-0.4,0.1-0.6,0l0.2-0.6
			c0.2,0,0.3,0,0.5-0.1c0.1-0.1,0.2-0.2,0.2-0.4c0.1-0.2,0-0.4,0-0.5c-0.1-0.1-0.2-0.2-0.4-0.3l-0.1,0c-0.2-0.1-0.4-0.1-0.5,0
			c-0.1,0.1-0.2,0.2-0.3,0.4l-0.1,0.3l-0.5-0.2l0.1-0.3c0-0.2,0-0.3,0-0.4c-0.1-0.1-0.2-0.2-0.4-0.2l-0.1,0c-0.2,0-0.3,0-0.4,0
			c-0.1,0.1-0.2,0.2-0.2,0.4c0,0.1,0,0.3,0,0.4c0.1,0.1,0.2,0.2,0.3,0.3l-0.2,0.6c-0.3-0.2-0.5-0.4-0.7-0.6
			c-0.1-0.3-0.1-0.5-0.1-0.9c0.1-0.4,0.3-0.6,0.5-0.7c0.2-0.1,0.5-0.2,0.9-0.1l0.1,0c0.2,0.1,0.4,0.2,0.5,0.3
			c0.1,0.2,0.2,0.3,0.2,0.6c0.1-0.2,0.3-0.4,0.5-0.4c0.2-0.1,0.4-0.1,0.7,0l0.1,0c0.4,0.1,0.6,0.3,0.8,0.6
			C426.4,377.4,426.5,377.8,426.4,378.1z"/>
		<path class="st5" d="M427.3,375c-0.1,0.4-0.3,0.7-0.6,0.8c-0.3,0.1-0.6,0.2-0.9,0l-1.9-0.5c-0.4-0.1-0.6-0.3-0.8-0.5
			c-0.2-0.3-0.2-0.6-0.1-1c0.1-0.4,0.3-0.7,0.6-0.8c0.3-0.1,0.6-0.2,0.9,0l1.9,0.5c0.4,0.1,0.6,0.3,0.8,0.5
			C427.4,374.2,427.4,374.6,427.3,375z M426.7,374.8c0.1-0.2,0-0.4,0-0.5c-0.1-0.1-0.2-0.2-0.4-0.3l-1.9-0.5c-0.2-0.1-0.4-0.1-0.5,0
			s-0.2,0.2-0.3,0.4c-0.1,0.2-0.1,0.4,0,0.5c0.1,0.1,0.2,0.2,0.4,0.3l1.9,0.5c0.2,0.1,0.4,0.1,0.5,0
			C426.6,375.1,426.7,375,426.7,374.8z"/>
	</g>
	<path class="st6" d="M431.1,379.3"/>
	
		<rect x="399.7" y="413.7" transform="matrix(0.2814 -0.9596 0.9596 0.2814 -111.0305 683.6929)" class="st2" width="2.6" height="4.6"/>
	
		<rect x="400.4" y="411.2" transform="matrix(0.2814 -0.9596 0.9596 0.2814 -108.0686 682.5864)" class="st2" width="2.6" height="4.6"/>
	
		<rect x="401.1" y="408.6" transform="matrix(0.2814 -0.9596 0.9596 0.2814 -105.1066 681.48)" class="st2" width="2.6" height="4.6"/>
	
		<rect x="401.9" y="406.1" transform="matrix(0.2814 -0.9596 0.9596 0.2814 -102.1447 680.3735)" class="st2" width="2.6" height="4.6"/>
	
		<rect x="402.6" y="403.6" transform="matrix(0.2814 -0.9596 0.9596 0.2814 -99.1828 679.2671)" class="st2" width="2.6" height="4.6"/>
	
		<rect x="404" y="415" transform="matrix(0.2814 -0.9596 0.9596 0.2814 -109.1185 688.8112)" class="st2" width="2.6" height="4.6"/>
	
		<rect x="404.8" y="412.5" transform="matrix(0.2814 -0.9596 0.9596 0.2814 -106.1566 687.7048)" class="st2" width="2.6" height="4.6"/>
	
		<rect x="405.5" y="409.9" transform="matrix(0.2814 -0.9596 0.9596 0.2814 -103.1946 686.5983)" class="st2" width="2.6" height="4.6"/>
	
		<rect x="406.3" y="407.4" transform="matrix(0.2814 -0.9596 0.9596 0.2814 -100.2327 685.4919)" class="st2" width="2.6" height="4.6"/>
	
		<rect x="407" y="404.9" transform="matrix(0.2814 -0.9596 0.9596 0.2814 -97.2708 684.3854)" class="st2" width="2.6" height="4.6"/>
	<circle class="st3" cx="404.6" cy="411.6" r="3.9"/>
	<g class="st4">
		<path class="st5" d="M402.6,411l4.1,1.2l-0.2,0.6l-3.5-1l0.2,0.7l-0.6-0.2l-0.2-0.7L402.6,411z"/>
	</g>
	<g>
	</g>
	<g>
	</g>
	<g>
	</g>
	<g>
	</g>
	<g>
	</g>
	<g>
	</g>
</g>
</svg>
